<svg xmlns="http://www.w3.org/2000/svg" version="1.1" xmlns:xlink="http://www.w3.org/1999/xlink" xmlns:svgjs="http://svgjs.com/svgjs" width="1024" height="200" preserveAspectRatio="none" viewBox="0 0 1024 200"><g mask="url(&quot;#SvgjsMask1165&quot;)" fill="none"><rect width="1024" height="200" x="0" y="0" fill="#0e2a47"></rect><path d="M -690.1989617348755,24 C -587.8,50.6 -383,142.6 -178.19896173487552,157 C 26.6,171.4 129,91.6 333.8010382651245,96 C 538.6,100.4 707.76,193.4 845.8010382651245,179 C 983.84,164.6 988.36,55 1024,24" stroke="rgba(51, 121, 194, 0.58)" stroke-width="2"></path><path d="M -202.00360098716817,144 C -99.6,119.6 105.2,28.8 309.99639901283183,22 C 514.8,15.2 617.2,103.4 821.9963990128318,110 C 1026.8,116.6 1293.6,48.6 1333.9963990128317,55 C 1374.4,61.4 1086,124.6 1024,142" stroke="rgba(51, 121, 194, 0.58)" stroke-width="2"></path><path d="M -193.08233367074524,84 C -90.68,100.2 114.12,168.4 318.91766632925476,165 C 523.72,161.6 626.12,62 830.9176663292548,67 C 1035.72,72 1304.3,183.6 1342.9176663292546,190 C 1381.53,196.4 1087.78,117.2 1024,99" stroke="rgba(51, 121, 194, 0.58)" stroke-width="2"></path></g><defs><mask id="SvgjsMask1165"><rect width="1024" height="200" fill="#ffffff"></rect></mask></defs></svg>