<svg xmlns="http://www.w3.org/2000/svg" version="1.1" xmlns:xlink="http://www.w3.org/1999/xlink" xmlns:svgjs="http://svgjs.com/svgjs" width="1024" height="200" preserveAspectRatio="none" viewBox="0 0 1024 200"><g mask="url(&quot;#SvgjsMask1173&quot;)" fill="none"><rect width="1024" height="200" x="0" y="0" fill="#0e2a47"></rect><path d="M -494.4132628893703,30 C -443.21,51.4 -340.81,131.6 -238.4132628893703,137 C -136.01,142.4 -84.81,53.8 17.586737110629713,57 C 119.99,60.2 171.19,154.6 273.5867371106297,153 C 375.99,151.4 427.19,58.8 529.5867371106297,49 C 631.99,39.2 686.7,101.8 785.5867371106297,104 C 884.47,106.2 976.32,68.8 1024,60" stroke="rgba(51, 121, 194, 0.58)" stroke-width="2"></path><path d="M -282.66388922805294,113 C -231.46,101.4 -129.06,53.2 -26.663889228052938,55 C 75.74,56.8 126.94,128 229.33611077194706,122 C 331.74,116 382.94,13.6 485.33611077194706,25 C 587.74,36.4 638.94,178.4 741.336110771947,179 C 843.74,179.6 940.8,38.4 997.336110771947,28 C 1053.87,17.6 1018.67,107.2 1024,127" stroke="rgba(51, 121, 194, 0.58)" stroke-width="2"></path><path d="M -241.81965124047161,76 C -190.62,95.6 -88.22,170.6 14.180348759528385,174 C 116.58,177.4 167.78,105.4 270.1803487595284,93 C 372.58,80.6 423.78,120.8 526.1803487595284,112 C 628.58,103.2 679.78,46 782.1803487595284,49 C 884.58,52 989.82,124.6 1038.1803487595284,127 C 1086.54,129.4 1026.84,74.2 1024,61" stroke="rgba(51, 121, 194, 0.58)" stroke-width="2"></path><path d="M -52.585028115611635,52 C -1.39,74.2 101.01,159.6 203.41497188438836,163 C 305.81,166.4 357.01,70.2 459.41497188438836,69 C 561.81,67.8 613.01,161.6 715.4149718843884,157 C 817.81,152.4 869.01,53.4 971.4149718843884,46 C 1073.81,38.6 1216.9,124.8 1227.4149718843883,120 C 1237.93,115.2 1064.68,41.6 1024,22" stroke="rgba(51, 121, 194, 0.58)" stroke-width="2"></path><path d="M -379.3237070201446,62 C -328.12,81.2 -225.72,158.2 -123.32370702014458,158 C -20.92,157.8 30.28,66.2 132.67629297985542,61 C 235.08,55.8 286.28,135.2 388.6762929798554,132 C 491.08,128.8 542.28,46 644.6762929798554,45 C 747.08,44 824.81,119.4 900.6762929798554,127 C 976.54,134.6 999.34,91.8 1024,83" stroke="rgba(51, 121, 194, 0.58)" stroke-width="2"></path><path d="M -209.9655107667586,44 C -158.77,60.2 -56.37,119.2 46.0344892332414,125 C 148.43,130.8 199.63,77.6 302.0344892332414,73 C 404.43,68.4 455.63,114.2 558.0344892332414,102 C 660.43,89.8 711.63,10.2 814.0344892332414,12 C 916.43,13.8 1028.04,109.4 1070.0344892332414,111 C 1112.03,112.6 1033.21,38.2 1024,20" stroke="rgba(51, 121, 194, 0.58)" stroke-width="2"></path><path d="M -17.826249048752402,122 C 33.37,113 135.77,79.6 238.1737509512476,77 C 340.57,74.4 391.77,104.6 494.1737509512476,109 C 596.57,113.4 647.77,90.8 750.1737509512476,99 C 852.57,107.2 903.77,165.4 1006.1737509512476,150 C 1108.57,134.6 1258.61,16 1262.1737509512477,22 C 1265.74,28 1071.63,148.4 1024,180" stroke="rgba(51, 121, 194, 0.58)" stroke-width="2"></path><path d="M -153.10918312865084,123 C -101.91,106.8 0.49,41.4 102.89081687134916,42 C 205.29,42.6 256.49,116.4 358.89081687134916,126 C 461.29,135.6 512.49,91 614.8908168713492,90 C 717.29,89 768.49,128.6 870.8908168713492,121 C 973.29,113.4 1096.27,52.2 1126.8908168713492,52 C 1157.51,51.8 1044.58,106.4 1024,120" stroke="rgba(51, 121, 194, 0.58)" stroke-width="2"></path><path d="M -10.030815833524343,62 C 41.17,86 143.57,192 245.96918416647566,182 C 348.37,172 399.57,18.4 501.96918416647566,12 C 604.37,5.6 655.57,146 757.9691841664757,150 C 860.37,154 911.57,37.4 1013.9691841664757,32 C 1116.37,26.6 1267.96,126.8 1269.9691841664758,123 C 1271.98,119.2 1073.19,35 1024,13" stroke="rgba(51, 121, 194, 0.58)" stroke-width="2"></path></g><defs><mask id="SvgjsMask1173"><rect width="1024" height="200" fill="#ffffff"></rect></mask></defs></svg>