<svg xmlns="http://www.w3.org/2000/svg" version="1.1" xmlns:xlink="http://www.w3.org/1999/xlink" xmlns:svgjs="http://svgjs.com/svgjs" width="1024" height="200" preserveAspectRatio="none" viewBox="0 0 1024 200"><g mask="url(&quot;#SvgjsMask1168&quot;)" fill="none"><rect width="1024" height="200" x="0" y="0" fill="#0e2a47"></rect><path d="M -325.6274707857259,163 C -257.23,136.4 -120.43,33.6 16.372529214274067,30 C 153.17,26.4 221.57,133.8 358.3725292142741,145 C 495.17,156.2 563.57,78.4 700.3725292142741,86 C 837.17,93.6 977.65,195.2 1042.372529214274,183 C 1107.1,170.8 1027.67,56.6 1024,25" stroke="rgba(51, 121, 194, 0.58)" stroke-width="2"></path><path d="M -184.72194407938895,139 C -116.32,121.2 20.48,51.8 157.27805592061105,50 C 294.08,48.2 362.48,128.4 499.27805592061105,130 C 636.08,131.6 704.48,62.8 841.278055920611,58 C 978.08,53.2 1146.73,105.6 1183.278055920611,106 C 1219.82,106.4 1055.86,69.2 1024,60" stroke="rgba(51, 121, 194, 0.58)" stroke-width="2"></path><path d="M -162.81573415201888,153 C -94.42,128.2 42.38,30.8 179.18426584798112,29 C 315.98,27.2 384.38,133.6 521.1842658479811,144 C 657.98,154.4 726.38,73 863.1842658479811,81 C 999.98,89 1173.02,188.4 1205.1842658479811,184 C 1237.35,179.6 1060.24,84 1024,59" stroke="rgba(51, 121, 194, 0.58)" stroke-width="2"></path><path d="M -83.37151453101416,91 C -14.97,103.8 121.83,162.4 258.62848546898584,155 C 395.43,147.6 463.83,62.4 600.6284854689859,54 C 737.43,45.6 805.83,121 942.6284854689859,113 C 1079.43,105 1268.35,9.2 1284.628485468986,14 C 1300.9,18.8 1076.13,112.4 1024,137" stroke="rgba(51, 121, 194, 0.58)" stroke-width="2"></path><path d="M -627.355980816011,58 C -558.96,78.8 -422.16,163 -285.35598081601097,162 C -148.56,161 -80.16,59.8 56.64401918398903,53 C 193.44,46.2 261.84,119 398.64401918398903,128 C 535.44,137 615.57,92.6 740.644019183989,98 C 865.72,103.4 967.33,143.6 1024,155" stroke="rgba(51, 121, 194, 0.58)" stroke-width="2"></path></g><defs><mask id="SvgjsMask1168"><rect width="1024" height="200" fill="#ffffff"></rect></mask></defs></svg>