<svg xmlns="http://www.w3.org/2000/svg" version="1.1" xmlns:xlink="http://www.w3.org/1999/xlink" xmlns:svgjs="http://svgjs.com/svgjs" width="1024" height="200" preserveAspectRatio="none" viewBox="0 0 1024 200"><g mask="url(&quot;#SvgjsMask1170&quot;)" fill="none"><rect width="1024" height="200" x="0" y="0" fill="#0e2a47"></rect><path d="M -566.832746358159,153 C -498.43,129.2 -361.63,35.6 -224.8327463581591,34 C -88.03,32.4 -19.63,143.6 117.16725364184089,145 C 253.97,146.4 322.37,41.8 459.1672536418409,41 C 595.97,40.2 688.2,138.6 801.167253641841,141 C 914.13,143.4 979.43,70.6 1024,53" stroke="rgba(51, 121, 194, 0.58)" stroke-width="2"></path><path d="M -168.26795315007175,68 C -99.87,76 36.93,113.8 173.73204684992825,108 C 310.53,102.2 378.93,34.6 515.7320468499282,39 C 652.53,43.4 720.93,133 857.7320468499282,130 C 994.53,127 1166.48,23 1199.7320468499283,24 C 1232.99,25 1059.15,112.8 1024,135" stroke="rgba(51, 121, 194, 0.58)" stroke-width="2"></path><path d="M -83.15777951050654,93 C -14.76,109.4 122.04,185.4 258.84222048949346,175 C 395.64,164.6 464.04,46.4 600.8422204894935,41 C 737.64,35.6 806.04,139 942.8422204894935,148 C 1079.64,157 1268.61,91.4 1284.8422204894935,86 C 1301.07,80.6 1076.17,114 1024,121" stroke="rgba(51, 121, 194, 0.58)" stroke-width="2"></path><path d="M -473.3716803465736,34 C -404.97,54.4 -268.17,125.6 -131.37168034657358,136 C 5.43,146.4 73.83,77 210.62831965342642,86 C 347.43,95 415.83,192.6 552.6283196534264,181 C 689.43,169.4 800.35,43.4 894.6283196534264,28 C 988.9,12.6 998.13,88.8 1024,104" stroke="rgba(51, 121, 194, 0.58)" stroke-width="2"></path><path d="M -208.52104679551323,95 C -140.12,106 -3.32,157.8 133.47895320448677,150 C 270.28,142.2 338.68,65.2 475.47895320448674,56 C 612.28,46.8 680.68,112.2 817.4789532044867,104 C 954.28,95.8 1118.17,10.8 1159.4789532044867,15 C 1200.78,19.2 1051.1,103 1024,125" stroke="rgba(51, 121, 194, 0.58)" stroke-width="2"></path><path d="M -653.3752659049908,19 C -584.98,45.8 -448.18,145.4 -311.37526590499084,153 C -174.58,160.6 -106.18,60.2 30.62473409500916,57 C 167.42,53.8 235.82,138 372.62473409500916,137 C 509.42,136 584.35,42.6 714.6247340950092,52 C 844.9,61.4 962.12,157.6 1024,184" stroke="rgba(51, 121, 194, 0.58)" stroke-width="2"></path><path d="M -420.25732861999455,78 C -351.86,83.6 -215.06,104.4 -78.25732861999457,106 C 58.54,107.6 126.94,78 263.74267138000545,86 C 400.54,94 468.94,144.6 605.7426713800054,146 C 742.54,147.4 864.09,98 947.7426713800054,93 C 1031.39,88 1008.75,115.4 1024,121" stroke="rgba(51, 121, 194, 0.58)" stroke-width="2"></path></g><defs><mask id="SvgjsMask1170"><rect width="1024" height="200" fill="#ffffff"></rect></mask></defs></svg>