<svg xmlns="http://www.w3.org/2000/svg" version="1.1" xmlns:xlink="http://www.w3.org/1999/xlink" xmlns:svgjs="http://svgjs.com/svgjs" width="1024" height="550" preserveAspectRatio="none" viewBox="0 0 1024 550"><g mask="url(&quot;#SvgjsMask1030&quot;)" fill="none"><rect width="1024" height="550" x="0" y="0" fill="#0e2a47"></rect><path d="M-86.62 450.06L-86.62 450.06" stroke="#132e65" stroke-width="1.5"></path><path d="M-86.62 450.06L32.4 437.72" stroke="#132e65" stroke-width="1.5"></path><path d="M-86.62 450.06L-39.25 570.73" stroke="#132e65" stroke-width="1.5"></path><path d="M-86.62 450.06L38.41 544.53" stroke="#132e65" stroke-width="1.5"></path><path d="M-86.62 450.06L88.54 327" stroke="#132e65" stroke-width="1.5"></path><path d="M-39.25 570.73L-39.25 570.73" stroke="#132e65" stroke-width="1.5"></path><path d="M-39.25 570.73L38.41 544.53" stroke="#132e65" stroke-width="1.5"></path><path d="M-50.67 713.14L-50.67 713.14" stroke="#132e65" stroke-width="1.5"></path><path d="M-50.67 713.14L32.85 699.32" stroke="#132e65" stroke-width="1.5"></path><path d="M-50.67 713.14L-39.25 570.73" stroke="#132e65" stroke-width="1.5"></path><path d="M-50.67 713.14L38.41 544.53" stroke="#132e65" stroke-width="1.5"></path><path d="M-50.67 713.14L206.49 717.14" stroke="#132e65" stroke-width="1.5"></path><path d="M88.54 327L88.54 327" stroke="#132e65" stroke-width="1.5"></path><path d="M88.54 327L32.4 437.72" stroke="#132e65" stroke-width="1.5"></path><path d="M88.54 327L213.78 319.79" stroke="#132e65" stroke-width="1.5"></path><path d="M88.54 327L216.6 427.47" stroke="#132e65" stroke-width="1.5"></path><path d="M32.4 437.72L32.4 437.72" stroke="#132e65" stroke-width="1.5"></path><path d="M32.4 437.72L38.41 544.53" stroke="#132e65" stroke-width="1.5"></path><path d="M38.41 544.53L38.41 544.53" stroke="#132e65" stroke-width="1.5"></path><path d="M38.41 544.53L179.29 555.67" stroke="#132e65" stroke-width="1.5"></path><path d="M38.41 544.53L32.85 699.32" stroke="#132e65" stroke-width="1.5"></path><path d="M32.85 699.32L32.85 699.32" stroke="#132e65" stroke-width="1.5"></path><path d="M32.85 699.32L-39.25 570.73" stroke="#132e65" stroke-width="1.5"></path><path d="M32.85 699.32L206.49 717.14" stroke="#132e65" stroke-width="1.5"></path><path d="M213.78 319.79L213.78 319.79" stroke="#132e65" stroke-width="1.5"></path><path d="M213.78 319.79L216.6 427.47" stroke="#132e65" stroke-width="1.5"></path><path d="M213.78 319.79L309.3 461.12" stroke="#132e65" stroke-width="1.5"></path><path d="M216.6 427.47L216.6 427.47" stroke="#132e65" stroke-width="1.5"></path><path d="M216.6 427.47L309.3 461.12" stroke="#132e65" stroke-width="1.5"></path><path d="M216.6 427.47L179.29 555.67" stroke="#132e65" stroke-width="1.5"></path><path d="M179.29 555.67L179.29 555.67" stroke="#132e65" stroke-width="1.5"></path><path d="M179.29 555.67L317.11 591.1" stroke="#132e65" stroke-width="1.5"></path><path d="M179.29 555.67L309.3 461.12" stroke="#132e65" stroke-width="1.5"></path><path d="M206.49 717.14L206.49 717.14" stroke="#132e65" stroke-width="1.5"></path><path d="M206.49 717.14L350.33 726.79" stroke="#132e65" stroke-width="1.5"></path><path d="M206.49 717.14L179.29 555.67" stroke="#132e65" stroke-width="1.5"></path><path d="M309.3 461.12L309.3 461.12" stroke="#132e65" stroke-width="1.5"></path><path d="M309.3 461.12L436.3 452.28" stroke="#132e65" stroke-width="1.5"></path><path d="M309.3 461.12L317.11 591.1" stroke="#132e65" stroke-width="1.5"></path><path d="M309.3 461.12L424.26 585.29" stroke="#132e65" stroke-width="1.5"></path><path d="M317.11 591.1L317.11 591.1" stroke="#132e65" stroke-width="1.5"></path><path d="M317.11 591.1L424.26 585.29" stroke="#132e65" stroke-width="1.5"></path><path d="M350.33 726.79L350.33 726.79" stroke="#132e65" stroke-width="1.5"></path><path d="M350.33 726.79L317.11 591.1" stroke="#132e65" stroke-width="1.5"></path><path d="M350.33 726.79L424.26 585.29" stroke="#132e65" stroke-width="1.5"></path><path d="M350.33 726.79L179.29 555.67" stroke="#132e65" stroke-width="1.5"></path><path d="M350.33 726.79L598.55 722.97" stroke="#132e65" stroke-width="1.5"></path><path d="M350.33 726.79L309.3 461.12" stroke="#132e65" stroke-width="1.5"></path><path d="M456.72 331.18L456.72 331.18" stroke="#132e65" stroke-width="1.5"></path><path d="M456.72 331.18L436.3 452.28" stroke="#132e65" stroke-width="1.5"></path><path d="M456.72 331.18L560.75 422.16" stroke="#132e65" stroke-width="1.5"></path><path d="M456.72 331.18L598.33 303.44" stroke="#132e65" stroke-width="1.5"></path><path d="M456.72 331.18L546.16 189.68" stroke="#132e65" stroke-width="1.5"></path><path d="M436.3 452.28L436.3 452.28" stroke="#132e65" stroke-width="1.5"></path><path d="M424.26 585.29L424.26 585.29" stroke="#132e65" stroke-width="1.5"></path><path d="M424.26 585.29L436.3 452.28" stroke="#132e65" stroke-width="1.5"></path><path d="M605.92 82.45L605.92 82.45" stroke="#132e65" stroke-width="1.5"></path><path d="M605.92 82.45L681.42 78.73" stroke="#132e65" stroke-width="1.5"></path><path d="M605.92 82.45L686.68 174.59" stroke="#132e65" stroke-width="1.5"></path><path d="M605.92 82.45L546.16 189.68" stroke="#132e65" stroke-width="1.5"></path><path d="M605.92 82.45L710.48 -89.42" stroke="#132e65" stroke-width="1.5"></path><path d="M605.92 82.45L813.21 67.82" stroke="#132e65" stroke-width="1.5"></path><path d="M546.16 189.68L546.16 189.68" stroke="#132e65" stroke-width="1.5"></path><path d="M546.16 189.68L598.33 303.44" stroke="#132e65" stroke-width="1.5"></path><path d="M546.16 189.68L686.68 174.59" stroke="#132e65" stroke-width="1.5"></path><path d="M546.16 189.68L681.42 78.73" stroke="#132e65" stroke-width="1.5"></path><path d="M598.33 303.44L598.33 303.44" stroke="#132e65" stroke-width="1.5"></path><path d="M598.33 303.44L695.59 296.37" stroke="#132e65" stroke-width="1.5"></path><path d="M598.33 303.44L560.75 422.16" stroke="#132e65" stroke-width="1.5"></path><path d="M560.75 422.16L560.75 422.16" stroke="#132e65" stroke-width="1.5"></path><path d="M560.75 422.16L436.3 452.28" stroke="#132e65" stroke-width="1.5"></path><path d="M605.02 584.61L605.02 584.61" stroke="#132e65" stroke-width="1.5"></path><path d="M605.02 584.61L678.58 546.93" stroke="#132e65" stroke-width="1.5"></path><path d="M605.02 584.61L598.55 722.97" stroke="#132e65" stroke-width="1.5"></path><path d="M605.02 584.61L696.82 477.28" stroke="#132e65" stroke-width="1.5"></path><path d="M605.02 584.61L699.31 705.47" stroke="#132e65" stroke-width="1.5"></path><path d="M605.02 584.61L560.75 422.16" stroke="#132e65" stroke-width="1.5"></path><path d="M598.55 722.97L598.55 722.97" stroke="#132e65" stroke-width="1.5"></path><path d="M598.55 722.97L699.31 705.47" stroke="#132e65" stroke-width="1.5"></path><path d="M710.48 -89.42L710.48 -89.42" stroke="#132e65" stroke-width="1.5"></path><path d="M710.48 -89.42L849.22 -89.91" stroke="#132e65" stroke-width="1.5"></path><path d="M710.48 -89.42L681.42 78.73" stroke="#132e65" stroke-width="1.5"></path><path d="M681.42 78.73L681.42 78.73" stroke="#132e65" stroke-width="1.5"></path><path d="M681.42 78.73L686.68 174.59" stroke="#132e65" stroke-width="1.5"></path><path d="M681.42 78.73L813.21 67.82" stroke="#132e65" stroke-width="1.5"></path><path d="M686.68 174.59L686.68 174.59" stroke="#132e65" stroke-width="1.5"></path><path d="M686.68 174.59L695.59 296.37" stroke="#132e65" stroke-width="1.5"></path><path d="M686.68 174.59L598.33 303.44" stroke="#132e65" stroke-width="1.5"></path><path d="M695.59 296.37L695.59 296.37" stroke="#132e65" stroke-width="1.5"></path><path d="M695.59 296.37L804.74 302.37" stroke="#132e65" stroke-width="1.5"></path><path d="M695.59 296.37L696.82 477.28" stroke="#132e65" stroke-width="1.5"></path><path d="M695.59 296.37L546.16 189.68" stroke="#132e65" stroke-width="1.5"></path><path d="M696.82 477.28L696.82 477.28" stroke="#132e65" stroke-width="1.5"></path><path d="M696.82 477.28L678.58 546.93" stroke="#132e65" stroke-width="1.5"></path><path d="M696.82 477.28L560.75 422.16" stroke="#132e65" stroke-width="1.5"></path><path d="M696.82 477.28L831.66 547.04" stroke="#132e65" stroke-width="1.5"></path><path d="M678.58 546.93L678.58 546.93" stroke="#132e65" stroke-width="1.5"></path><path d="M678.58 546.93L831.66 547.04" stroke="#132e65" stroke-width="1.5"></path><path d="M699.31 705.47L699.31 705.47" stroke="#132e65" stroke-width="1.5"></path><path d="M699.31 705.47L817.45 730.78" stroke="#132e65" stroke-width="1.5"></path><path d="M849.22 -89.91L849.22 -89.91" stroke="#132e65" stroke-width="1.5"></path><path d="M849.22 -89.91L970.29 -88.04" stroke="#132e65" stroke-width="1.5"></path><path d="M849.22 -89.91L813.21 67.82" stroke="#132e65" stroke-width="1.5"></path><path d="M849.22 -89.91L953.63 89.34" stroke="#132e65" stroke-width="1.5"></path><path d="M849.22 -89.91L681.42 78.73" stroke="#132e65" stroke-width="1.5"></path><path d="M813.21 67.82L813.21 67.82" stroke="#132e65" stroke-width="1.5"></path><path d="M813.21 67.82L845.08 163.66" stroke="#132e65" stroke-width="1.5"></path><path d="M813.21 67.82L953.63 89.34" stroke="#132e65" stroke-width="1.5"></path><path d="M845.08 163.66L845.08 163.66" stroke="#132e65" stroke-width="1.5"></path><path d="M845.08 163.66L960.42 176.1" stroke="#132e65" stroke-width="1.5"></path><path d="M845.08 163.66L953.63 89.34" stroke="#132e65" stroke-width="1.5"></path><path d="M804.74 302.37L804.74 302.37" stroke="#132e65" stroke-width="1.5"></path><path d="M804.74 302.37L863.63 424.97" stroke="#132e65" stroke-width="1.5"></path><path d="M804.74 302.37L845.08 163.66" stroke="#132e65" stroke-width="1.5"></path><path d="M804.74 302.37L961.73 311.43" stroke="#132e65" stroke-width="1.5"></path><path d="M804.74 302.37L686.68 174.59" stroke="#132e65" stroke-width="1.5"></path><path d="M863.63 424.97L863.63 424.97" stroke="#132e65" stroke-width="1.5"></path><path d="M863.63 424.97L969.35 420.72" stroke="#132e65" stroke-width="1.5"></path><path d="M863.63 424.97L831.66 547.04" stroke="#132e65" stroke-width="1.5"></path><path d="M831.66 547.04L831.66 547.04" stroke="#132e65" stroke-width="1.5"></path><path d="M831.66 547.04L963.87 545.96" stroke="#132e65" stroke-width="1.5"></path><path d="M817.45 730.78L817.45 730.78" stroke="#132e65" stroke-width="1.5"></path><path d="M817.45 730.78L962.42 693.23" stroke="#132e65" stroke-width="1.5"></path><path d="M817.45 730.78L831.66 547.04" stroke="#132e65" stroke-width="1.5"></path><path d="M817.45 730.78L598.55 722.97" stroke="#132e65" stroke-width="1.5"></path><path d="M817.45 730.78L678.58 546.93" stroke="#132e65" stroke-width="1.5"></path><path d="M817.45 730.78L963.87 545.96" stroke="#132e65" stroke-width="1.5"></path><path d="M970.29 -88.04L970.29 -88.04" stroke="#132e65" stroke-width="1.5"></path><path d="M970.29 -88.04L1104.52 -64.79" stroke="#132e65" stroke-width="1.5"></path><path d="M970.29 -88.04L953.63 89.34" stroke="#132e65" stroke-width="1.5"></path><path d="M970.29 -88.04L813.21 67.82" stroke="#132e65" stroke-width="1.5"></path><path d="M970.29 -88.04L1111.2 91.69" stroke="#132e65" stroke-width="1.5"></path><path d="M970.29 -88.04L710.48 -89.42" stroke="#132e65" stroke-width="1.5"></path><path d="M953.63 89.34L953.63 89.34" stroke="#132e65" stroke-width="1.5"></path><path d="M953.63 89.34L960.42 176.1" stroke="#132e65" stroke-width="1.5"></path><path d="M953.63 89.34L1060.06 162.25" stroke="#132e65" stroke-width="1.5"></path><path d="M953.63 89.34L1111.2 91.69" stroke="#132e65" stroke-width="1.5"></path><path d="M960.42 176.1L960.42 176.1" stroke="#132e65" stroke-width="1.5"></path><path d="M960.42 176.1L1060.06 162.25" stroke="#132e65" stroke-width="1.5"></path><path d="M960.42 176.1L961.73 311.43" stroke="#132e65" stroke-width="1.5"></path><path d="M960.42 176.1L1062.88 288.34" stroke="#132e65" stroke-width="1.5"></path><path d="M960.42 176.1L1111.2 91.69" stroke="#132e65" stroke-width="1.5"></path><path d="M961.73 311.43L961.73 311.43" stroke="#132e65" stroke-width="1.5"></path><path d="M961.73 311.43L1062.88 288.34" stroke="#132e65" stroke-width="1.5"></path><path d="M961.73 311.43L969.35 420.72" stroke="#132e65" stroke-width="1.5"></path><path d="M969.35 420.72L969.35 420.72" stroke="#132e65" stroke-width="1.5"></path><path d="M969.35 420.72L1067.4 449.4" stroke="#132e65" stroke-width="1.5"></path><path d="M963.87 545.96L963.87 545.96" stroke="#132e65" stroke-width="1.5"></path><path d="M963.87 545.96L969.35 420.72" stroke="#132e65" stroke-width="1.5"></path><path d="M963.87 545.96L1067.4 449.4" stroke="#132e65" stroke-width="1.5"></path><path d="M962.42 693.23L962.42 693.23" stroke="#132e65" stroke-width="1.5"></path><path d="M962.42 693.23L963.87 545.96" stroke="#132e65" stroke-width="1.5"></path><path d="M962.42 693.23L1110.7 686.88" stroke="#132e65" stroke-width="1.5"></path><path d="M962.42 693.23L831.66 547.04" stroke="#132e65" stroke-width="1.5"></path><path d="M1104.52 -64.79L1104.52 -64.79" stroke="#132e65" stroke-width="1.5"></path><path d="M1104.52 -64.79L1111.2 91.69" stroke="#132e65" stroke-width="1.5"></path><path d="M1104.52 -64.79L953.63 89.34" stroke="#132e65" stroke-width="1.5"></path><path d="M1104.52 -64.79L1060.06 162.25" stroke="#132e65" stroke-width="1.5"></path><path d="M1104.52 -64.79L849.22 -89.91" stroke="#132e65" stroke-width="1.5"></path><path d="M1104.52 -64.79L960.42 176.1" stroke="#132e65" stroke-width="1.5"></path><path d="M1111.2 91.69L1111.2 91.69" stroke="#132e65" stroke-width="1.5"></path><path d="M1111.2 91.69L1060.06 162.25" stroke="#132e65" stroke-width="1.5"></path><path d="M1060.06 162.25L1060.06 162.25" stroke="#132e65" stroke-width="1.5"></path><path d="M1060.06 162.25L1062.88 288.34" stroke="#132e65" stroke-width="1.5"></path><path d="M1060.06 162.25L961.73 311.43" stroke="#132e65" stroke-width="1.5"></path><path d="M1060.06 162.25L845.08 163.66" stroke="#132e65" stroke-width="1.5"></path><path d="M1062.88 288.34L1062.88 288.34" stroke="#132e65" stroke-width="1.5"></path><path d="M1062.88 288.34L1067.4 449.4" stroke="#132e65" stroke-width="1.5"></path><path d="M1067.4 449.4L1067.4 449.4" stroke="#132e65" stroke-width="1.5"></path><path d="M1067.4 449.4L961.73 311.43" stroke="#132e65" stroke-width="1.5"></path><path d="M1067.4 449.4L863.63 424.97" stroke="#132e65" stroke-width="1.5"></path><path d="M1067.4 449.4L1110.7 686.88" stroke="#132e65" stroke-width="1.5"></path><path d="M1110.7 686.88L1110.7 686.88" stroke="#132e65" stroke-width="1.5"></path><circle r="5" cx="-86.62" cy="450.06" fill="#132e65"></circle><circle r="5" cx="-39.25" cy="570.73" fill="#132e65"></circle><circle r="5" cx="-50.67" cy="713.14" fill="#132e65"></circle><circle r="5" cx="88.54" cy="327" fill="#132e65"></circle><circle r="5" cx="32.4" cy="437.72" fill="#132e65"></circle><circle r="5" cx="38.41" cy="544.53" fill="#132e65"></circle><circle r="5" cx="32.85" cy="699.32" fill="#132e65"></circle><circle r="5" cx="213.78" cy="319.79" fill="#132e65"></circle><circle r="5" cx="216.6" cy="427.47" fill="#132e65"></circle><circle r="5" cx="179.29" cy="555.67" fill="#132e65"></circle><circle r="5" cx="206.49" cy="717.14" fill="#132e65"></circle><circle r="5" cx="309.3" cy="461.12" fill="#132e65"></circle><circle r="5" cx="317.11" cy="591.1" fill="#132e65"></circle><circle r="5" cx="350.33" cy="726.79" fill="#132e65"></circle><circle r="5" cx="456.72" cy="331.18" fill="#132e65"></circle><circle r="5" cx="436.3" cy="452.28" fill="#132e65"></circle><circle r="5" cx="424.26" cy="585.29" fill="#132e65"></circle><circle r="5" cx="605.92" cy="82.45" fill="#132e65"></circle><circle r="5" cx="546.16" cy="189.68" fill="#132e65"></circle><circle r="5" cx="598.33" cy="303.44" fill="#132e65"></circle><circle r="5" cx="560.75" cy="422.16" fill="#132e65"></circle><circle r="5" cx="605.02" cy="584.61" fill="#132e65"></circle><circle r="5" cx="598.55" cy="722.97" fill="#132e65"></circle><circle r="5" cx="710.48" cy="-89.42" fill="#132e65"></circle><circle r="5" cx="681.42" cy="78.73" fill="#132e65"></circle><circle r="5" cx="686.68" cy="174.59" fill="#132e65"></circle><circle r="5" cx="695.59" cy="296.37" fill="#132e65"></circle><circle r="5" cx="696.82" cy="477.28" fill="#132e65"></circle><circle r="5" cx="678.58" cy="546.93" fill="#132e65"></circle><circle r="5" cx="699.31" cy="705.47" fill="#132e65"></circle><circle r="5" cx="849.22" cy="-89.91" fill="#132e65"></circle><circle r="5" cx="813.21" cy="67.82" fill="#132e65"></circle><circle r="5" cx="845.08" cy="163.66" fill="#132e65"></circle><circle r="5" cx="804.74" cy="302.37" fill="#132e65"></circle><circle r="5" cx="863.63" cy="424.97" fill="#132e65"></circle><circle r="5" cx="831.66" cy="547.04" fill="#132e65"></circle><circle r="5" cx="817.45" cy="730.78" fill="#132e65"></circle><circle r="5" cx="970.29" cy="-88.04" fill="#132e65"></circle><circle r="5" cx="953.63" cy="89.34" fill="#132e65"></circle><circle r="5" cx="960.42" cy="176.1" fill="#132e65"></circle><circle r="5" cx="961.73" cy="311.43" fill="#132e65"></circle><circle r="5" cx="969.35" cy="420.72" fill="#132e65"></circle><circle r="5" cx="963.87" cy="545.96" fill="#132e65"></circle><circle r="5" cx="962.42" cy="693.23" fill="#132e65"></circle><circle r="5" cx="1104.52" cy="-64.79" fill="#132e65"></circle><circle r="5" cx="1111.2" cy="91.69" fill="#132e65"></circle><circle r="5" cx="1060.06" cy="162.25" fill="#132e65"></circle><circle r="5" cx="1062.88" cy="288.34" fill="#132e65"></circle><circle r="5" cx="1067.4" cy="449.4" fill="#132e65"></circle><circle r="5" cx="1110.7" cy="686.88" fill="#132e65"></circle><path d="M-60.32 552.78L-60.32 552.78" stroke="hsl(0, 0%, 100%)" stroke-width="1.5"></path><path d="M-60.32 552.78L-93.73 449.42" stroke="hsl(0, 0%, 100%)" stroke-width="1.5"></path><path d="M-60.32 552.78L63.07 598.89" stroke="hsl(0, 0%, 100%)" stroke-width="1.5"></path><path d="M-60.32 552.78L60.81 700.09" stroke="hsl(0, 0%, 100%)" stroke-width="1.5"></path><path d="M-60.32 552.78L181.23 576.37" stroke="hsl(0, 0%, 100%)" stroke-width="1.5"></path><path d="M-60.32 552.78L174.7 724.74" stroke="hsl(0, 0%, 100%)" stroke-width="1.5"></path><path d="M478.25 462.86L478.25 462.86" stroke="hsl(0, 0%, 100%)" stroke-width="1.5"></path><path d="M478.25 462.86L551.99 446.43" stroke="hsl(0, 0%, 100%)" stroke-width="1.5"></path><path d="M478.25 462.86L341.32 570.97" stroke="hsl(0, 0%, 100%)" stroke-width="1.5"></path><path d="M478.25 462.86L601.9 595.89" stroke="hsl(0, 0%, 100%)" stroke-width="1.5"></path><path d="M478.25 462.86L298.03 422.84" stroke="hsl(0, 0%, 100%)" stroke-width="1.5"></path><path d="M551.99 446.43L551.99 446.43" stroke="hsl(0, 0%, 100%)" stroke-width="1.5"></path><path d="M551.99 446.43L694.62 442.11" stroke="hsl(0, 0%, 100%)" stroke-width="1.5"></path><path d="M551.99 446.43L601.9 595.89" stroke="hsl(0, 0%, 100%)" stroke-width="1.5"></path><path d="M551.99 446.43L681.07 548.37" stroke="hsl(0, 0%, 100%)" stroke-width="1.5"></path><path d="M860.96 223.49L860.96 223.49" stroke="hsl(0, 0%, 100%)" stroke-width="1.5"></path><path d="M860.96 223.49L825.48 304.42" stroke="hsl(0, 0%, 100%)" stroke-width="1.5"></path><path d="M860.96 223.49L956.13 187.06" stroke="hsl(0, 0%, 100%)" stroke-width="1.5"></path><path d="M860.96 223.49L807.99 77.21" stroke="hsl(0, 0%, 100%)" stroke-width="1.5"></path><path d="M860.96 223.49L982.32 66.38" stroke="hsl(0, 0%, 100%)" stroke-width="1.5"></path><path d="M860.96 223.49L969.08 420.91" stroke="hsl(0, 0%, 100%)" stroke-width="1.5"></path><path d="M956.13 187.06L956.13 187.06" stroke="hsl(0, 0%, 100%)" stroke-width="1.5"></path><path d="M956.13 187.06L982.32 66.38" stroke="hsl(0, 0%, 100%)" stroke-width="1.5"></path><path d="M1091.55 574.48L1091.55 574.48" stroke="hsl(0, 0%, 100%)" stroke-width="1.5"></path><path d="M1091.55 574.48L953.06 597.6" stroke="hsl(0, 0%, 100%)" stroke-width="1.5"></path><path d="M1091.55 574.48L1079.29 722.69" stroke="hsl(0, 0%, 100%)" stroke-width="1.5"></path><path d="M-93.73 449.42L-93.73 449.42" stroke="hsl(0, 0%, 100%)" stroke-width="1.5"></path><path d="M-93.73 449.42L63.07 598.89" stroke="hsl(0, 0%, 100%)" stroke-width="1.5"></path><path d="M-93.73 449.42L60.81 700.09" stroke="hsl(0, 0%, 100%)" stroke-width="1.5"></path><path d="M63.07 598.89L63.07 598.89" stroke="hsl(0, 0%, 100%)" stroke-width="1.5"></path><path d="M63.07 598.89L60.81 700.09" stroke="hsl(0, 0%, 100%)" stroke-width="1.5"></path><path d="M63.07 598.89L181.23 576.37" stroke="hsl(0, 0%, 100%)" stroke-width="1.5"></path><path d="M63.07 598.89L174.7 724.74" stroke="hsl(0, 0%, 100%)" stroke-width="1.5"></path><path d="M60.81 700.09L60.81 700.09" stroke="hsl(0, 0%, 100%)" stroke-width="1.5"></path><path d="M60.81 700.09L174.7 724.74" stroke="hsl(0, 0%, 100%)" stroke-width="1.5"></path><path d="M60.81 700.09L181.23 576.37" stroke="hsl(0, 0%, 100%)" stroke-width="1.5"></path><path d="M181.23 576.37L181.23 576.37" stroke="hsl(0, 0%, 100%)" stroke-width="1.5"></path><path d="M181.23 576.37L174.7 724.74" stroke="hsl(0, 0%, 100%)" stroke-width="1.5"></path><path d="M174.7 724.74L174.7 724.74" stroke="hsl(0, 0%, 100%)" stroke-width="1.5"></path><path d="M174.7 724.74L324.03 698.25" stroke="hsl(0, 0%, 100%)" stroke-width="1.5"></path><path d="M174.7 724.74L341.32 570.97" stroke="hsl(0, 0%, 100%)" stroke-width="1.5"></path><path d="M298.03 422.84L298.03 422.84" stroke="hsl(0, 0%, 100%)" stroke-width="1.5"></path><path d="M298.03 422.84L341.32 570.97" stroke="hsl(0, 0%, 100%)" stroke-width="1.5"></path><path d="M298.03 422.84L181.23 576.37" stroke="hsl(0, 0%, 100%)" stroke-width="1.5"></path><path d="M298.03 422.84L551.99 446.43" stroke="hsl(0, 0%, 100%)" stroke-width="1.5"></path><path d="M298.03 422.84L324.03 698.25" stroke="hsl(0, 0%, 100%)" stroke-width="1.5"></path><path d="M341.32 570.97L341.32 570.97" stroke="hsl(0, 0%, 100%)" stroke-width="1.5"></path><path d="M341.32 570.97L324.03 698.25" stroke="hsl(0, 0%, 100%)" stroke-width="1.5"></path><path d="M341.32 570.97L181.23 576.37" stroke="hsl(0, 0%, 100%)" stroke-width="1.5"></path><path d="M324.03 698.25L324.03 698.25" stroke="hsl(0, 0%, 100%)" stroke-width="1.5"></path><path d="M324.03 698.25L181.23 576.37" stroke="hsl(0, 0%, 100%)" stroke-width="1.5"></path><path d="M324.03 698.25L573.25 702.7" stroke="hsl(0, 0%, 100%)" stroke-width="1.5"></path><path d="M601.9 595.89L601.9 595.89" stroke="hsl(0, 0%, 100%)" stroke-width="1.5"></path><path d="M601.9 595.89L681.07 548.37" stroke="hsl(0, 0%, 100%)" stroke-width="1.5"></path><path d="M601.9 595.89L573.25 702.7" stroke="hsl(0, 0%, 100%)" stroke-width="1.5"></path><path d="M601.9 595.89L710.73 702.76" stroke="hsl(0, 0%, 100%)" stroke-width="1.5"></path><path d="M601.9 595.89L694.62 442.11" stroke="hsl(0, 0%, 100%)" stroke-width="1.5"></path><path d="M573.25 702.7L573.25 702.7" stroke="hsl(0, 0%, 100%)" stroke-width="1.5"></path><path d="M694.62 442.11L694.62 442.11" stroke="hsl(0, 0%, 100%)" stroke-width="1.5"></path><path d="M694.62 442.11L681.07 548.37" stroke="hsl(0, 0%, 100%)" stroke-width="1.5"></path><path d="M694.62 442.11L813.59 469.3" stroke="hsl(0, 0%, 100%)" stroke-width="1.5"></path><path d="M681.07 548.37L681.07 548.37" stroke="hsl(0, 0%, 100%)" stroke-width="1.5"></path><path d="M710.73 702.76L710.73 702.76" stroke="hsl(0, 0%, 100%)" stroke-width="1.5"></path><path d="M710.73 702.76L842.54 722.7" stroke="hsl(0, 0%, 100%)" stroke-width="1.5"></path><path d="M710.73 702.76L573.25 702.7" stroke="hsl(0, 0%, 100%)" stroke-width="1.5"></path><path d="M861.2 -89.23L861.2 -89.23" stroke="hsl(0, 0%, 100%)" stroke-width="1.5"></path><path d="M861.2 -89.23L977.43 -43.84" stroke="hsl(0, 0%, 100%)" stroke-width="1.5"></path><path d="M861.2 -89.23L807.99 77.21" stroke="hsl(0, 0%, 100%)" stroke-width="1.5"></path><path d="M861.2 -89.23L982.32 66.38" stroke="hsl(0, 0%, 100%)" stroke-width="1.5"></path><path d="M861.2 -89.23L1105.24 -86.9" stroke="hsl(0, 0%, 100%)" stroke-width="1.5"></path><path d="M861.2 -89.23L1095.21 34.32" stroke="hsl(0, 0%, 100%)" stroke-width="1.5"></path><path d="M807.99 77.21L807.99 77.21" stroke="hsl(0, 0%, 100%)" stroke-width="1.5"></path><path d="M807.99 77.21L982.32 66.38" stroke="hsl(0, 0%, 100%)" stroke-width="1.5"></path><path d="M825.48 304.42L825.48 304.42" stroke="hsl(0, 0%, 100%)" stroke-width="1.5"></path><path d="M825.48 304.42L813.59 469.3" stroke="hsl(0, 0%, 100%)" stroke-width="1.5"></path><path d="M825.48 304.42L956.13 187.06" stroke="hsl(0, 0%, 100%)" stroke-width="1.5"></path><path d="M825.48 304.42L969.08 420.91" stroke="hsl(0, 0%, 100%)" stroke-width="1.5"></path><path d="M813.59 469.3L813.59 469.3" stroke="hsl(0, 0%, 100%)" stroke-width="1.5"></path><path d="M813.59 469.3L850.42 601.73" stroke="hsl(0, 0%, 100%)" stroke-width="1.5"></path><path d="M813.59 469.3L681.07 548.37" stroke="hsl(0, 0%, 100%)" stroke-width="1.5"></path><path d="M813.59 469.3L969.08 420.91" stroke="hsl(0, 0%, 100%)" stroke-width="1.5"></path><path d="M813.59 469.3L953.06 597.6" stroke="hsl(0, 0%, 100%)" stroke-width="1.5"></path><path d="M850.42 601.73L850.42 601.73" stroke="hsl(0, 0%, 100%)" stroke-width="1.5"></path><path d="M850.42 601.73L953.06 597.6" stroke="hsl(0, 0%, 100%)" stroke-width="1.5"></path><path d="M850.42 601.73L842.54 722.7" stroke="hsl(0, 0%, 100%)" stroke-width="1.5"></path><path d="M850.42 601.73L710.73 702.76" stroke="hsl(0, 0%, 100%)" stroke-width="1.5"></path><path d="M850.42 601.73L681.07 548.37" stroke="hsl(0, 0%, 100%)" stroke-width="1.5"></path><path d="M842.54 722.7L842.54 722.7" stroke="hsl(0, 0%, 100%)" stroke-width="1.5"></path><path d="M842.54 722.7L991.24 726.36" stroke="hsl(0, 0%, 100%)" stroke-width="1.5"></path><path d="M842.54 722.7L953.06 597.6" stroke="hsl(0, 0%, 100%)" stroke-width="1.5"></path><path d="M842.54 722.7L1079.29 722.69" stroke="hsl(0, 0%, 100%)" stroke-width="1.5"></path><path d="M842.54 722.7L681.07 548.37" stroke="hsl(0, 0%, 100%)" stroke-width="1.5"></path><path d="M977.43 -43.84L977.43 -43.84" stroke="hsl(0, 0%, 100%)" stroke-width="1.5"></path><path d="M977.43 -43.84L982.32 66.38" stroke="hsl(0, 0%, 100%)" stroke-width="1.5"></path><path d="M977.43 -43.84L1105.24 -86.9" stroke="hsl(0, 0%, 100%)" stroke-width="1.5"></path><path d="M977.43 -43.84L1095.21 34.32" stroke="hsl(0, 0%, 100%)" stroke-width="1.5"></path><path d="M977.43 -43.84L807.99 77.21" stroke="hsl(0, 0%, 100%)" stroke-width="1.5"></path><path d="M982.32 66.38L982.32 66.38" stroke="hsl(0, 0%, 100%)" stroke-width="1.5"></path><path d="M982.32 66.38L1095.21 34.32" stroke="hsl(0, 0%, 100%)" stroke-width="1.5"></path><path d="M969.08 420.91L969.08 420.91" stroke="hsl(0, 0%, 100%)" stroke-width="1.5"></path><path d="M969.08 420.91L953.06 597.6" stroke="hsl(0, 0%, 100%)" stroke-width="1.5"></path><path d="M969.08 420.91L1098.8 289.28" stroke="hsl(0, 0%, 100%)" stroke-width="1.5"></path><path d="M953.06 597.6L953.06 597.6" stroke="hsl(0, 0%, 100%)" stroke-width="1.5"></path><path d="M953.06 597.6L991.24 726.36" stroke="hsl(0, 0%, 100%)" stroke-width="1.5"></path><path d="M991.24 726.36L991.24 726.36" stroke="hsl(0, 0%, 100%)" stroke-width="1.5"></path><path d="M991.24 726.36L1079.29 722.69" stroke="hsl(0, 0%, 100%)" stroke-width="1.5"></path><path d="M991.24 726.36L1091.55 574.48" stroke="hsl(0, 0%, 100%)" stroke-width="1.5"></path><path d="M991.24 726.36L850.42 601.73" stroke="hsl(0, 0%, 100%)" stroke-width="1.5"></path><path d="M991.24 726.36L710.73 702.76" stroke="hsl(0, 0%, 100%)" stroke-width="1.5"></path><path d="M1105.24 -86.9L1105.24 -86.9" stroke="hsl(0, 0%, 100%)" stroke-width="1.5"></path><path d="M1105.24 -86.9L1095.21 34.32" stroke="hsl(0, 0%, 100%)" stroke-width="1.5"></path><path d="M1105.24 -86.9L982.32 66.38" stroke="hsl(0, 0%, 100%)" stroke-width="1.5"></path><path d="M1095.21 34.32L1095.21 34.32" stroke="hsl(0, 0%, 100%)" stroke-width="1.5"></path><path d="M1095.21 34.32L1093.27 173.31" stroke="hsl(0, 0%, 100%)" stroke-width="1.5"></path><path d="M1093.27 173.31L1093.27 173.31" stroke="hsl(0, 0%, 100%)" stroke-width="1.5"></path><path d="M1093.27 173.31L1098.8 289.28" stroke="hsl(0, 0%, 100%)" stroke-width="1.5"></path><path d="M1093.27 173.31L956.13 187.06" stroke="hsl(0, 0%, 100%)" stroke-width="1.5"></path><path d="M1093.27 173.31L982.32 66.38" stroke="hsl(0, 0%, 100%)" stroke-width="1.5"></path><path d="M1098.8 289.28L1098.8 289.28" stroke="hsl(0, 0%, 100%)" stroke-width="1.5"></path><path d="M1098.8 289.28L956.13 187.06" stroke="hsl(0, 0%, 100%)" stroke-width="1.5"></path><path d="M1079.29 722.69L1079.29 722.69" stroke="hsl(0, 0%, 100%)" stroke-width="1.5"></path><path d="M1079.29 722.69L953.06 597.6" stroke="hsl(0, 0%, 100%)" stroke-width="1.5"></path><circle r="25" cx="-60.32" cy="552.78" fill="url(#SvgjsRadialGradient1031)"></circle><circle r="25" cx="478.25" cy="462.86" fill="url(#SvgjsRadialGradient1031)"></circle><circle r="25" cx="551.99" cy="446.43" fill="url(#SvgjsRadialGradient1031)"></circle><circle r="25" cx="860.96" cy="223.49" fill="url(#SvgjsRadialGradient1031)"></circle><circle r="25" cx="956.13" cy="187.06" fill="url(#SvgjsRadialGradient1031)"></circle><circle r="25" cx="1091.55" cy="574.48" fill="url(#SvgjsRadialGradient1031)"></circle><circle r="5" cx="-93.73" cy="449.42" fill="#eeeeee"></circle><circle r="5" cx="63.07" cy="598.89" fill="#eeeeee"></circle><circle r="5" cx="60.81" cy="700.09" fill="#eeeeee"></circle><circle r="5" cx="181.23" cy="576.37" fill="#eeeeee"></circle><circle r="5" cx="174.7" cy="724.74" fill="#eeeeee"></circle><circle r="5" cx="298.03" cy="422.84" fill="#eeeeee"></circle><circle r="5" cx="341.32" cy="570.97" fill="#eeeeee"></circle><circle r="5" cx="324.03" cy="698.25" fill="#eeeeee"></circle><circle r="5" cx="601.9" cy="595.89" fill="#eeeeee"></circle><circle r="5" cx="573.25" cy="702.7" fill="#eeeeee"></circle><circle r="5" cx="694.62" cy="442.11" fill="#eeeeee"></circle><circle r="5" cx="681.07" cy="548.37" fill="#eeeeee"></circle><circle r="5" cx="710.73" cy="702.76" fill="#eeeeee"></circle><circle r="5" cx="861.2" cy="-89.23" fill="#eeeeee"></circle><circle r="5" cx="807.99" cy="77.21" fill="#eeeeee"></circle><circle r="5" cx="825.48" cy="304.42" fill="#eeeeee"></circle><circle r="5" cx="813.59" cy="469.3" fill="#eeeeee"></circle><circle r="5" cx="850.42" cy="601.73" fill="#eeeeee"></circle><circle r="5" cx="842.54" cy="722.7" fill="#eeeeee"></circle><circle r="5" cx="977.43" cy="-43.84" fill="#eeeeee"></circle><circle r="5" cx="982.32" cy="66.38" fill="#eeeeee"></circle><circle r="5" cx="969.08" cy="420.91" fill="#eeeeee"></circle><circle r="5" cx="953.06" cy="597.6" fill="#eeeeee"></circle><circle r="5" cx="991.24" cy="726.36" fill="#eeeeee"></circle><circle r="5" cx="1105.24" cy="-86.9" fill="#eeeeee"></circle><circle r="5" cx="1095.21" cy="34.32" fill="#eeeeee"></circle><circle r="5" cx="1093.27" cy="173.31" fill="#eeeeee"></circle><circle r="5" cx="1098.8" cy="289.28" fill="#eeeeee"></circle><circle r="5" cx="1079.29" cy="722.69" fill="#eeeeee"></circle></g><defs><mask id="SvgjsMask1030"><rect width="1024" height="550" fill="#ffffff"></rect></mask><radialGradient id="SvgjsRadialGradient1031"><stop stop-color="#ffffff" offset="0.1"></stop><stop stop-color="rgba(221, 221, 221, 1)" offset="0.2"></stop><stop stop-color="rgba(221, 221, 221, 0)" offset="1"></stop></radialGradient></defs></svg>