<svg xmlns="http://www.w3.org/2000/svg" version="1.1" xmlns:xlink="http://www.w3.org/1999/xlink" xmlns:svgjs="http://svgjs.com/svgjs" width="1024" height="200" preserveAspectRatio="none" viewBox="0 0 1024 200"><g mask="url(&quot;#SvgjsMask1026&quot;)" fill="none"><rect width="1024" height="200" x="0" y="0" fill="#0e2a47"></rect><path d="M131.04 78.96 a61.11 61.11 0 1 0 122.22 0 a61.11 61.11 0 1 0 -122.22 0z" fill="rgba(28, 83, 142, 0.4)" class="triangle-float2"></path><path d="M801.96 187.81 a35.84 35.84 0 1 0 71.68 0 a35.84 35.84 0 1 0 -71.68 0z" fill="rgba(28, 83, 142, 0.4)" class="triangle-float1"></path><path d="M998.4444302639906 118.33383460583279L998.4974016551109 62.75126335988557 956.0014395464116 86.30715980693158z" fill="rgba(28, 83, 142, 0.4)" class="triangle-float2"></path><path d="M31.749488427429256 201.58204925797037L58.379817791860305 213.4386357902293 62.849532908033204 167.56484847745327z" fill="rgba(28, 83, 142, 0.4)" class="triangle-float2"></path><path d="M168.37 166.63 a62.22 62.22 0 1 0 124.44 0 a62.22 62.22 0 1 0 -124.44 0z" fill="rgba(28, 83, 142, 0.4)" class="triangle-float2"></path><path d="M163.24 55.49 a64.15 64.15 0 1 0 128.3 0 a64.15 64.15 0 1 0 -128.3 0z" fill="rgba(28, 83, 142, 0.4)" class="triangle-float2"></path><path d="M156.56251889310096 115.06956847215095L139.25630017436174 146.29081350392875 194.74127708139804 156.6395190661487z" fill="rgba(28, 83, 142, 0.4)" class="triangle-float2"></path></g><defs><mask id="SvgjsMask1026"><rect width="1024" height="200" fill="#ffffff"></rect></mask><style>
            @keyframes float1 {
                0%{transform: translate(0, 0)}
                50%{transform: translate(-10px, 0)}
                100%{transform: translate(0, 0)}
            }

            .triangle-float1 {
                animation: float1 5s infinite;
            }

            @keyframes float2 {
                0%{transform: translate(0, 0)}
                50%{transform: translate(-5px, -5px)}
                100%{transform: translate(0, 0)}
            }

            .triangle-float2 {
                animation: float2 4s infinite;
            }

            @keyframes float3 {
                0%{transform: translate(0, 0)}
                50%{transform: translate(0, -10px)}
                100%{transform: translate(0, 0)}
            }

            .triangle-float3 {
                animation: float3 6s infinite;
            }
        </style></defs></svg>